<svg width="512" height="512" viewBox="0 0 512 512" fill="none" xmlns="http://www.w3.org/2000/svg">
    <g clip-path="url(#clip0_4_14)">
        <path fill-rule="evenodd" clip-rule="evenodd" d="M155.67 423.954C122.675 452.306 67.0631 508.763 39.552 511.786C17.9631 514.157 0 496.437 0 477.675V34.1113C0 15.3488 17.7969 -0.0260259 39.552 3.3077e-05L271.893 0.416987L107.189 143.742C88.9088 159.651 76.9586 181.227 76.9586 205.423C76.9586 258.154 135.018 292.486 176.685 291.431C218.352 290.363 225.452 281.007 241.648 267.222L311.445 206.453C317.549 201.15 326.039 197.892 335.391 197.892C354.094 197.892 369.262 210.974 369.262 227.104C369.262 235.17 365.44 242.479 359.337 247.756L155.685 423.941L155.67 423.954ZM348.006 14.7234C350.287 15.4791 352.553 16.2478 354.789 17.0687C447.143 50.3982 512 87.9231 512 194.752C512 301.594 404.358 379.002 328.547 379.002C252.737 379.002 308.197 378.468 298.271 377.452L297.727 377.4L397.771 292.995C418.211 275.743 433.788 253.424 433.788 226.818C433.788 179.312 375.079 140.81 334.062 140.81C293.044 140.81 285.717 151.09 267.769 166.087L218.397 209.736L198.863 227.013C192.835 232.342 184.269 235.574 174.917 235.574C156.214 235.574 141.046 222.492 141.046 206.361C141.046 198.296 144.853 191.013 150.971 185.71L256.876 93.7995L348.006 14.7234Z" fill="#36B37E"/>
    </g>
    <defs>
        <clipPath id="clip0_4_14">
            <rect width="512" height="512" fill="white"/>
        </clipPath>
    </defs>
</svg>