<svg width="513" height="513" viewBox="0 0 513 513" fill="none" xmlns="http://www.w3.org/2000/svg">
    <path className="logo" fill-rule="evenodd" clip-rule="evenodd" d="M156.561 424.118C123.57 452.471 67.9521 508.934 40.4358 511.961C18.8626 514.342 0.892822 496.604 0.892822 477.857V34.2809C0.892822 15.5135 18.6989 0.136325 40.4358 0.176684L272.78 0.600478L108.08 143.939C89.7827 159.841 77.8496 181.413 77.8496 205.629C77.8496 258.359 135.901 292.706 177.573 291.636C219.245 290.567 226.335 281.203 242.526 267.42L312.323 206.658C318.43 201.351 326.924 198.102 336.26 198.102C354.955 198.102 370.14 211.179 370.14 227.323C370.14 235.395 366.326 242.7 360.219 247.967L156.561 424.158V424.118ZM348.895 14.8677C351.164 15.6345 353.434 16.4014 355.68 17.2086C448.033 50.5459 512.893 129.207 512.893 220.966C512.893 342.913 398.288 441.755 256.893 441.755C246.644 441.755 236.536 441.23 226.615 440.201L226.077 440.141L398.663 293.15C419.019 275.815 434.673 253.577 434.673 226.979C434.673 179.476 375.966 140.972 334.949 140.972C293.932 140.972 286.609 151.244 268.662 166.238L219.292 209.887L199.754 227.161C193.718 232.489 185.154 235.717 175.818 235.717C157.123 235.717 141.937 222.641 141.937 206.497C141.937 198.425 145.751 191.14 151.858 185.853L257.759 93.9329L348.871 14.8475L348.895 14.8677Z" fill="#36B37E"/>
</svg>